nColumns=19
nRows=41
DataType=double
version=3
OpenSimVersion=4.1
endheader
time	ground_force_1_vx	ground_force_1_vy	ground_force_1_vz	ground_force_1_px	ground_force_1_py	ground_force_1_pz	ground_force_1_mx	ground_force_1_my	ground_force_1_mz	ground_force_2_vx	ground_force_2_vy	ground_force_2_vz	ground_force_2_px	ground_force_2_py	ground_force_2_pz	ground_force_2_mx	ground_force_2_my	ground_force_2_mz
0.39	-13.6105	27.4113	-8.23162	0.958081	0	-0.22412	-0	0.322921	-0	0	0	0	0.000452616	0	0.000443895	0	0	0
0.4	-51.0629	110.928	-18.7011	0.971626	0	-0.246919	-0	1.81824	-0	0	0	0	0.000452616	0	0.000443895	0	0	0
0.41	-132.569	334.6	-33.3205	0.981694	0	-0.252741	-0	3.24432	-0	0	0	0	0.000452616	0	0.000443895	0	0	0
0.42	-227.078	717.333	-45.7721	0.974123	0	-0.258233	-0	3.98198	-0	0	0	0	0.000452616	0	0.000443895	0	0	0
0.43	-270.094	1161.13	-45.5799	0.944123	0	-0.26538	-0	3.63514	-0	0	0	0	0.000452616	0	0.000443895	0	0	0
0.44	-281.201	1553.61	-26.6998	0.90498	0	-0.271954	-0	2.3585	-0	0	0	0	0.000452616	0	0.000443895	0	0	0
0.45	-303.333	1831.24	1.30519	0.869113	0	-0.276238	-0	0.898293	-0	0	0	0	0.000452616	0	0.000443895	0	0	0
0.46	-301.622	2015.41	17.6409	0.833678	0	-0.279062	-0	0.223216	-0	0	0	0	0.000452616	0	0.000443895	0	0	0
0.47	-244.317	2157.53	13.0555	0.795047	0	-0.28066	-0	0.956036	-0	0	0	0	0.000452616	0	0.000443895	0	0	0
0.48	-157.02	2258.42	-1.79881	0.756432	0	-0.280179	-0	3.02748	-0	0	0	0	0.000452616	0	0.000443895	0	0	0
0.49	-73.8882	2285.08	-15.2402	0.719576	0	-0.278384	-0	5.76833	-0	0	0	0	0.000452616	0	0.000443895	0	0	0
0.5	6.38898	2219.47	-25.3421	0.68194	0	-0.276894	-0	8.27705	-0	0	0	0	0.000452616	0	0.000443895	0	0	0
0.51	92.8088	2063.86	-29.9602	0.641384	0	-0.276126	-0	9.80163	-0	0	0	0	0.000452616	0	0.000443895	0	0	0
0.52	185.514	1827.21	-24.8857	0.597345	0	-0.275368	-0	10.0023	-0	0	0	0	0.000452616	0	0.000443895	0	0	0
0.53	267.15	1525.29	-13.9277	0.552321	0	-0.274262	-0	9.01797	-0	0	0	0	0.000452616	0	0.000443895	0	0	0
0.54	300.23	1181.19	-6.18995	0.509746	0	-0.273251	-0	7.30049	-0	0	0	0	0.000452616	0	0.000443895	0	0	0
0.55	275.937	823.541	-4.15777	0.466763	0	-0.272495	-0	5.33826	-0	0	0	0	0.000452616	0	0.000443895	0	0	0
0.56	212.527	500.712	-3.58818	0.42102	0	-0.270798	-0	3.47727	-0	0	0	0	0.000452616	0	0.000443895	0	0	0
0.57	129.866	260.994	-1.46902	0.392884	0	-0.266023	-0	1.91054	-0	0	0	0	0.000452616	0	0.000443895	0	0	0
0.58	56.0159	113.793	1.377	0.423428	0	-0.25505	-0	0.737708	-0	0	0	0	0.000452616	0	0.000443895	0	0	0
0.59	14.4147	39.3113	2.85097	0.54817	0	-0.228914	0	-0.010274	0	0	0	0	0.000452616	0	0.000443895	0	0	0
0.6	1.21759	12.1194	2.42316	0.869337	0	-0.177141	0	-0.385301	0	0	0	0	0.000452616	0	0.000443895	0	0	0
0.61	0	0	0	0.000452616	0	0.000443895	0	0	0	0	0	0	0.000452616	0	0.000443895	0	0	0
0.62	0	0	0	0.000452616	0	0.000443895	0	0	0	0	0	0	0.000452616	0	0.000443895	0	0	0
0.63	0	0	0	0.000452616	0	0.000443895	0	0	0	0	0	0	0.000452616	0	0.000443895	0	0	0
0.64	0	0	0	0.000452616	0	0.000443895	0	0	0	0	0	0	0.000452616	0	0.000443895	0	0	0
0.65	0	0	0	0.000452616	0	0.000443895	0	0	0	0	0	0	0.000452616	0	0.000443895	0	0	0
0.66	0	0	0	0.000452616	0	0.000443895	0	0	0	0	0	0	0.000452616	0	0.000443895	0	0	0
0.67	0	0	0	0.000452616	0	0.000443895	0	0	0	0	0	0	0.000452616	0	0.000443895	0	0	0
0.68	0	0	0	0.000452616	0	0.000443895	0	0	0	0	0	0	0.000452616	0	0.000443895	0	0	0
0.69	0	0	0	0.000452616	0	0.000443895	0	0	0	0	0	0	0.000452616	0	0.000443895	0	0	0
0.7	0	0	0	0.000452616	0	0.000443895	0	0	0	0	0	0	0.000452616	0	0.000443895	0	0	0
0.71	0	0	0	0.000452616	0	0.000443895	0	0	0	-13.3972	25.6065	-3.16092	1.0217	0	-0.423438	-0	6.18669	-0
0.72	0	0	0	0.000452616	0	0.000443895	0	0	0	-47.6923	104.245	0.700627	0.932518	0	-0.451041	-0	4.99152	-0
0.73	0	0	0	0.000452616	0	0.000443895	0	0	0	-125.642	319.604	18.83	0.92864	0	-0.443941	-0	2.2521	-0
0.74	0	0	0	0.000452616	0	0.000443895	0	0	0	-211.035	685.259	55.4722	0.9242	0	-0.430948	0	-1.30578	0
0.75	0	0	0	0.000452616	0	0.000443895	0	0	0	-237.227	1104.59	92.9707	0.899835	0	-0.418725	0	-4.50802	0
0.76	0	0	0	0.000452616	0	0.000443895	0	0	0	-225.911	1481.28	101.656	0.860826	0	-0.41154	0	-6.41325	0
0.77	0	0	0	0.000452616	0	0.000443895	0	0	0	-224.16	1757.09	79.8892	0.820766	0	-0.409643	0	-6.94245	0
0.78	0	0	0	0.000452616	0	0.000443895	0	0	0	-223.291	1945.61	60.4935	0.783687	0	-0.408833	0	-6.84535	0
0.79	0	0	0	0.000452616	0	0.000443895	0	0	0	-195.042	2090.18	66.3591	0.746671	0	-0.407229	0	-6.99743	0
